:version 1.10
:name ASF
:units
  mass 1
  length 1
  angle deg
:documentation
  ASF file generated by Kaydara
:root
  axis xyz
  order  tx ty tz rx ry rz
  position 0 0 0
  orientation 0 0 0
:bonedata
  begin
    id 1
    name RightUpLegDummy
    direction -1 2.30186e-007 8.31532e-007
    length 4.46685
    axis 0 0 0 xyz
  end
  begin
    id 2
    name RightUpLeg
    direction -2.30187e-007 -1 1.24343e-010
    length 16.4045
    axis -3.49089 -0.000906625 0.000286804 xyz
    dof rx ry rz
  end
  begin
    id 3
    name RightLeg
    direction -2.30181e-007 -1 -4.17157e-009
    length 17.5097
    axis 3.68512 0.0193738 -0.131023 xyz
    dof rx ry rz
  end
  begin
    id 4
    name RightFoot
    direction 8.31421e-007 -4.51202e-011 1
    length 6.49508
    axis 4.81691e-005 -0.120479 -0.188788 xyz
    dof rx ry rz
  end
  begin
    id 5
    name RightToes
    direction 0.00124746 -0.014064 0.9999
    length 3.85082
    axis 0.000481921 0.542163 -0.142578 xyz
    dof rx ry rz
  end
  begin
    id 6
    name SpineDummy
    direction 0.0717043 0.9409 -0.331007
    length 10.0032
    axis 0 0 0 xyz
  end
  begin
    id 7
    name Spine
    direction 2.30186e-007 1 4.58806e-011
    length 9.84055
    axis -0.001389 0.000121418 2.40972e-006 xyz
    dof rx ry rz
  end
  begin
    id 8
    name Spine1
    direction 0 0 0
    length 0
    axis -0.001389 0.000121451 1.30017e-006 xyz
    dof rx ry rz
  end
  begin
    id 9
    name HEadDummy
    direction -0.00347485 0.950688 -0.310128
    length 8.00997
    axis -0.001389 0.000121451 1.30017e-006 xyz
  end
  begin
    id 10
    name HEad
    direction -0.0222688 0.980941 0.193023
    length 5.12695
    axis -0.001389 0.000121451 1.30017e-006 xyz
    dof rx ry rz
  end
  begin
    id 11
    name LeftShoulder1Dummy
    direction 0.988871 0.146793 -0.0242004
    length 3.5792
    axis -0.001389 0.000121451 1.30017e-006 xyz
  end
  begin
    id 12
    name LeftShoulder1
    direction 0.993832 0.108932 0.020779
    length 4.16823
    axis -0.001389 0.000121451 1.30017e-006 xyz
    dof rx ry rz
  end
  begin
    id 13
    name LeftArm
    direction 1 3.44807e-006 -8.31404e-007
    length 9.91437
    axis -23.1894 0.134784 0.967509 xyz
    dof rx ry rz
  end
  begin
    id 14
    name LeftForeArm
    direction 1 3.44842e-006 -8.31581e-007
    length 9.08575
    axis -9.91835 -0.06569 -0.177793 xyz
    dof rx ry rz
  end
  begin
    id 15
    name LeftHand
    direction 0.992938 -0.0411636 0.11126
    length 5.32135
    axis -0.00960232 -0.00340091 0.185173 xyz
    dof rx ry rz
  end
  begin
    id 16
    name RightShoulderDummy
    direction -0.988871 0.146793 -0.0241962
    length 3.5792
    axis -0.001389 0.000121451 1.30017e-006 xyz
  end
  begin
    id 17
    name RightShoulder
    direction -0.993832 0.108933 0.0207785
    length 4.16823
    axis 0.215806 0.000203643 -0.0068026 xyz
    dof rx ry rz
  end
  begin
    id 18
    name RightArm
    direction -1 3.90912e-006 8.31284e-007
    length 9.91437
    axis -23.2009 -0.134239 -0.964101 xyz
    dof rx ry rz
  end
  begin
    id 19
    name RightForeArm
    direction -1 3.90882e-006 8.31502e-007
    length 9.08575
    axis -9.92322 0.0658061 0.178867 xyz
    dof rx ry rz
  end
  begin
    id 20
    name RightHand
    direction -0.992843 -0.0414603 0.112003
    length 5.28593
    axis -0.00960638 0.00330671 -0.185228 xyz
    dof rx ry rz
  end
  begin
    id 21
    name LeftUpLegDummy
    direction 1 -2.30186e-007 -8.31532e-007
    length 4.46685
    axis 0 0 0 xyz
  end
  begin
    id 22
    name LeftUpLeg
    direction -2.30187e-007 -1 6.00931e-010
    length 16.4045
    axis -3.48766 0.00143442 -0.000524262 xyz
    dof rx ry rz
  end
  begin
    id 23
    name LeftLeg
    direction -2.30187e-007 -1 1.6669e-009
    length 17.5097
    axis 3.68178 -0.00654042 -0.000285133 xyz
    dof rx ry rz
  end
  begin
    id 24
    name LeftFoot
    direction 8.31532e-007 -4.54478e-011 1
    length 6.49508
    axis 1.87233e-006 4.66016e-005 -8.6538e-006 xyz
    dof rx ry rz
  end
  begin
    id 25
    name LeftToes
    direction 0.00818058 -0.00485161 0.999955
    length 3.85048
    axis 1.06247e-005 4.65869e-005 -8.65513e-006 xyz
    dof rx ry rz
  end
:hierarchy
  begin
    root RightUpLegDummy SpineDummy LeftUpLegDummy
    RightUpLegDummy RightUpLeg
    RightUpLeg RightLeg
    RightLeg RightFoot
    RightFoot RightToes
    SpineDummy Spine
    Spine Spine1
    Spine1 HEadDummy LeftShoulder1Dummy RightShoulderDummy
    HEadDummy HEad
    LeftShoulder1Dummy LeftShoulder1
    LeftShoulder1 LeftArm
    LeftArm LeftForeArm
    LeftForeArm LeftHand
    RightShoulderDummy RightShoulder
    RightShoulder RightArm
    RightArm RightForeArm
    RightForeArm RightHand
    LeftUpLegDummy LeftUpLeg
    LeftUpLeg LeftLeg
    LeftLeg LeftFoot
    LeftFoot LeftToes
  end

:SAMPLES-PER-SECOND 30
:FULLY-SPECIFIED
:DEGREES
114
root  44.0445 30.9428 -32.9064 -174.631 -41.8293 -176.032
RightUpLeg  -0.858754 -18.0791 4.21102
RightLeg  48.6994 11.518 11.2652
RightFoot  6.47375 -0.104003 2.21615
RightToes  -70.5378 -0.495938 -0.41609
Spine  7.19725 6.75157 -3.51453
Spine1  12.1231 15.0805 -5.96726
HEad  29.0197 35.7533 0.707376
LeftShoulder1  0 -2.42657e-020 -4.95415e-022
LeftArm  -19.9026 -13.2142 -101.125
LeftForeArm  57.5202 -6.44441 -1.10554
LeftHand  -0.196035 -5.68091 3.5839
RightShoulder  0 2.42657e-020 1.07489e-018
RightArm  31.8192 28.8788 129.687
RightForeArm  63.0684 17.8631 3.20101
RightHand  1.38574 24.424 6.76819
LeftUpLeg  -34.5283 -6.49359 -11.7573
LeftLeg  43.5483 2.76072 2.29745
LeftFoot  -12.1417 -0.0158383 -0.148929
LeftToes  17.8925 9.37529e-007 1.1992e-007
115
root  43.1062 30.0223 -34.5066 -176.444 -43.1003 -176.42
RightUpLeg  -4.72185 -16.5264 1.79137
RightLeg  64.0839 11.0481 18.556
RightFoot  12.0549 -0.504705 5.15442
RightToes  -58.651 -0.381856 -0.394593
Spine  8.39471 6.3758 -3.19569
Spine1  14.408 14.3622 -5.43666
HEad  26.3067 38.233 -1.71305
LeftShoulder1  0 -2.42657e-020 -4.95415e-022
LeftArm  -13.3633 -13.7678 -98.7679
LeftForeArm  51.21 -9.58576 -1.67948
LeftHand  -0.0479231 -6.55585 0.467268
RightShoulder  0 2.42657e-020 1.07489e-018
RightArm  30.6344 30.5255 126.978
RightForeArm  60.8749 19.9813 3.62348
RightHand  0.847645 25.8477 4.0637
LeftUpLeg  -33.963 -6.28833 -12.5945
LeftLeg  52.494 2.22725 2.53487
LeftFoot  -18.3121 -0.0700462 -0.434598
LeftToes  20.5254 9.37529e-007 1.1992e-007
116
root  42.0245 29.3459 -35.9355 -176.268 -43.4711 -178.084
RightUpLeg  -10.757 -13.5323 -1.16266
RightLeg  75.5374 4.04238 11.9004
RightFoot  10.3827 -0.225992 2.86435
RightToes  -53.5228 -0.334482 -0.378115
Spine  8.82879 6.07692 -3.2956
Spine1  15.1047 13.9824 -6.16891
HEad  25.4082 41.7931 -2.81326
LeftShoulder1  0 -2.42657e-020 -4.95415e-022
LeftArm  -13.8545 -14.2827 -96.0201
LeftForeArm  52.7529 -10.2852 -1.80324
LeftHand  -0.00926449 -8.14398 -0.240016
RightShoulder  0 2.42657e-020 1.07489e-018
RightArm  30.3009 31.9642 122.318
RightForeArm  59.3885 21.7415 3.98264
RightHand  0.845902 26.5614 3.95363
LeftUpLeg  -31.5192 -5.90011 -14.2879
LeftLeg  56.3626 1.94641 2.54184
LeftFoot  -23.7623 -0.145274 -0.690505
LeftToes  21.2781 9.37529e-007 1.1992e-007
117
root  40.9985 29.1811 -37.3017 -176.381 -43.6913 -178.651
RightUpLeg  -17.6135 -9.93537 -2.97219
RightLeg  82.7902 0.204369 0.557059
RightFoot  4.50254 -0.0122488 0.689018
RightToes  -39.2499 -0.212519 -0.310846
Spine  8.94721 5.66874 -3.1854
Spine1  15.2691 13.2228 -6.39095
HEad  25.4496 45.4965 -2.5618
LeftShoulder1  0 -2.42657e-020 -4.95415e-022
LeftArm  -15.0128 -14.2385 -93.0804
LeftForeArm  57.7247 -10.2741 -1.79155
LeftHand  -0.173623 -8.93238 1.85406
RightShoulder  0 2.42657e-020 1.07489e-018
RightArm  26.3409 31.9026 115.376
RightForeArm  58.7938 22.5983 4.16042
RightHand  0.112469 27.1627 0.835751
LeftUpLeg  -28.1886 -6.82146 -14.8942
LeftLeg  57.2558 2.43912 3.29103
LeftFoot  -26.9003 -0.317936 -1.32935
LeftToes  21.8182 9.37529e-007 1.1992e-007
118
root  40.013 29.5318 -38.6475 -176.719 -44.1446 -178.259
RightUpLeg  -24.0534 -6.59002 -3.91938
RightLeg  84.0536 -1.10979 -7.08703
RightFoot  -2.87003 0.0159682 1.01522
RightToes  -23.4706 -0.101639 -0.204124
Spine  8.89234 5.23351 -2.60795
Spine1  15.2396 12.22 -5.58904
HEad  25.7693 48.5025 -2.47351
LeftShoulder1  0 -2.42657e-020 -4.95415e-022
LeftArm  -17.2158 -13.2545 -91.0029
LeftForeArm  60.7958 -10.198 -1.77117
LeftHand  -0.245471 -9.0521 2.73236
RightShoulder  0 2.42657e-020 1.07489e-018
RightArm  19.2735 29.4446 105.505
RightForeArm  54.2951 24.8316 4.64116
RightHand  -0.1178 26.3592 -0.133069
LeftUpLeg  -23.6261 -7.18091 -14.4402
LeftLeg  54.612 2.62711 3.2229
LeftFoot  -27.824 -0.373929 -1.50955
LeftToes  21.5565 9.37529e-007 1.1992e-007
119
root  39.064 30.263 -40.0442 -177.644 -45.1493 -176.561
RightUpLeg  -28.6044 -3.91239 -3.62944
RightLeg  78.4768 -2.73774 -10.2771
RightFoot  -7.43719 0.102148 1.9493
RightToes  -17.0304 -0.0655305 -0.152527
Spine  8.67748 4.77953 -1.52012
Spine1  15.0818 11.0513 -3.89025
HEad  25.6548 51.0443 -3.03216
LeftShoulder1  0 -2.42657e-020 -4.95415e-022
LeftArm  -21.1197 -11.7466 -90.0278
LeftForeArm  61.8317 -9.79039 -1.69511
LeftHand  -0.194206 -8.90489 2.12539
RightShoulder  0 2.42657e-020 1.07489e-018
RightArm  8.65782 25.0203 95.4902
RightForeArm  48.7982 26.6074 5.03897
RightHand  0.203694 26.1521 1.24727
LeftUpLeg  -18.2064 -7.94516 -12.7745
LeftLeg  49.3406 2.90754 2.96398
LeftFoot  -26.7817 -0.366544 -1.5396
LeftToes  20.5463 9.37529e-007 1.1992e-007
120
root  38.0951 31.2084 -41.4207 -178.387 -47.7778 -174.277
RightUpLeg  -30.8857 -3.56069 -2.73685
RightLeg  66.9005 -5.28941 -10.4762
RightFoot  -9.06146 0.148619 2.25308
RightToes  -17.3571 -0.067221 -0.15524
Spine  8.19868 3.89823 -0.207136
Spine1  14.487 8.95201 -1.87022
HEad  24.9887 53.0582 -4.21829
LeftShoulder1  0 -2.42657e-020 -4.95415e-022
LeftArm  -23.5781 -9.30304 -89.3686
LeftForeArm  59.7021 -10.1302 -1.76128
LeftHand  -0.123525 -8.50028 1.29316
RightShoulder  0 2.42657e-020 1.07489e-018
RightArm  -3.47514 19.1919 86.8277
RightForeArm  47.5688 27.4017 5.2184
RightHand  0.192555 25.7275 1.21348
LeftUpLeg  -13.1441 -9.73435 -10.5421
LeftLeg  43.0148 2.96574 2.42185
LeftFoot  -23.1846 -0.25827 -1.25901
LeftToes  18.2806 9.37529e-007 1.1992e-007
121
root  37.0807 32.1608 -42.8045 -178.619 -51.2737 -172.075
RightUpLeg  -30.9986 -4.72043 -1.71316
RightLeg  50.6198 -7.63781 -8.13632
RightFoot  -9.69054 0.144395 2.08099
RightToes  -19.7823 -0.0802483 -0.175069
Spine  7.47494 2.82987 0.965996
Spine1  13.457 6.44232 0.010394
HEad  22.9329 54.6151 -6.51013
LeftShoulder1  0 -2.42657e-020 -4.95415e-022
LeftArm  -24.3361 -6.21902 -88.6922
LeftForeArm  57.692 -11.1893 -1.95805
LeftHand  -0.120155 -8.53872 1.24047
RightShoulder  0 2.42657e-020 1.07489e-018
RightArm  -15.5025 12.8739 79.8734
RightForeArm  46.8925 27.5659 5.25651
RightHand  -0.188388 25.1844 -0.473431
LeftUpLeg  -9.3151 -11.0586 -8.01862
LeftLeg  37.3055 2.06707 1.36918
LeftFoot  -17.7126 -0.0908425 -0.583022
LeftToes  13.4735 9.37529e-007 1.1992e-007
122
root  36.0013 32.8887 -44.207 -177.803 -54.609 -171.147
RightUpLeg  -29.8329 -6.00046 -1.61184
RightLeg  32.7931 -6.01645 -3.35047
RightFoot  -8.49502 0.0508989 1.06296
RightToes  -29.9436 -0.143533 -0.251574
Spine  6.57725 1.81872 1.58398
Spine1  12.0732 4.10352 1.13112
HEad  20.7097 55.4448 -8.74003
LeftShoulder1  0 -2.42657e-020 -4.95415e-022
LeftArm  -23.337 -2.46565 -87.3942
LeftForeArm  55.2004 -13.1009 -2.31445
LeftHand  -0.0986824 -8.63898 0.937231
RightShoulder  0 2.42657e-020 1.07489e-018
RightArm  -27.7785 6.92238 75.3207
RightForeArm  45.9105 27.0841 5.14987
RightHand  -0.222808 25.1854 -0.627501
LeftUpLeg  -6.86536 -11.3986 -6.13837
LeftLeg  33.5845 0.323145 0.181579
LeftFoot  -11.9135 0.00146553 0.0140366
LeftToes  11.1915 9.37529e-007 1.1992e-007
123
root  34.9151 33.2676 -45.6281 -176.44 -57.369 -171.133
RightUpLeg  -28.855 -6.73726 -2.23918
RightLeg  19.6049 -1.16365 -0.333002
RightFoot  -6.29859 -0.0145884 0.112419
RightToes  -40.8863 -0.225602 -0.320074
Spine  5.69004 0.916328 1.74302
Spine1  10.6598 2.12228 1.57159
HEad  18.4285 56.1915 -10.5762
LeftShoulder1  0 -2.42657e-020 -4.95415e-022
LeftArm  -21.7577 1.5517 -85.4431
LeftForeArm  52.1131 -15.2222 -2.71709
LeftHand  -0.118077 -8.94655 1.14016
RightShoulder  0 2.42657e-020 1.07489e-018
RightArm  -33.4935 1.2518 71.6419
RightForeArm  46.5102 27.7981 5.30964
RightHand  -0.47168 24.7376 -1.7811
LeftUpLeg  -5.93861 -10.9798 -4.7993
LeftLeg  33.0289 -1.04006 -0.588896
LeftFoot  -7.10917 0.0106577 0.17156
LeftToes  6.15825 9.37529e-007 1.1992e-007
124
root  33.7982 33.2332 -47.0887 -176.273 -58.9501 -170.769
RightUpLeg  -28.3481 -2.3015 -3.74264
RightLeg  14.769 -1.05062 -0.205167
RightFoot  -4.84598 -0.0138919 0.0492538
RightToes  -40.0191 -0.218636 -0.31523
Spine  5.28756 0.46215 1.85996
Spine1  10.0742 1.13165 1.9259
HEad  15.8283 56.7977 -12.5641
LeftShoulder1  0 -2.42657e-020 -4.95415e-022
LeftArm  -20.7033 5.05064 -83.6414
LeftForeArm  49.8623 -17.0204 -3.06405
LeftHand  -0.130302 -9.12844 1.26315
RightShoulder  0 2.42657e-020 1.07489e-018
RightArm  -35.1239 -1.8512 68.689
RightForeArm  47.039 27.0322 5.13647
RightHand  -0.838399 23.6702 -3.63033
LeftUpLeg  -6.08908 -10.4228 -3.76484
LeftLeg  36.7768 -1.2875 -0.843791
LeftFoot  -3.90581 0.00326777 0.0958261
LeftToes  1.26202 9.37529e-007 1.1992e-007
125
root  32.5875 32.7864 -48.6727 -178.899 -60.1248 -168.976
RightUpLeg  -27.7346 -1.67533 -2.71357
RightLeg  18.1966 0.472508 0.121769
RightFoot  -3.46008 -0.0141557 -0.0911351
RightToes  -45.6852 -0.265417 -0.344934
Spine  5.44184 0.213102 2.2119
Spine1  10.5207 0.641111 2.52713
HEad  14.8931 57.4832 -13.2521
LeftShoulder1  0 -2.42657e-020 -4.95415e-022
LeftArm  -22.1431 7.44704 -82.597
LeftForeArm  50.7304 -17.3353 -3.1233
LeftHand  -0.219466 -9.22069 2.35285
RightShoulder  0 2.42657e-020 1.07489e-018
RightArm  -35.2503 -3.5532 66.5254
RightForeArm  44.9103 26.8837 5.10671
RightHand  -0.497004 22.8276 -2.092
LeftUpLeg  -6.7413 -10.5327 -2.58185
LeftLeg  45.0599 -0.305351 -0.275314
LeftFoot  -1.01195 -4.73631e-005 -0.00537221
LeftToes  -7.12474 9.37529e-007 1.1992e-007
126
root  31.4627 31.9834 -50.3174 176.674 -60.2424 -166.074
RightUpLeg  -28.1819 -3.51416 0.0922668
RightLeg  27.4419 2.55055 1.11592
RightFoot  -1.29409 -0.00593901 -0.148406
RightToes  -48.2777 -0.287751 -0.356951
Spine  5.97523 0.521417 2.75284
Spine1  11.6399 1.35059 3.23509
HEad  14.9198 57.6834 -12.7168
LeftShoulder1  0 -2.42657e-020 -4.95415e-022
LeftArm  -24.4357 9.22541 -82.0738
LeftForeArm  52.615 -18.3388 -3.31496
LeftHand  -0.269156 -9.09197 3.01657
RightShoulder  0 2.42657e-020 1.07489e-018
RightArm  -33.1873 -3.45676 64.8646
RightForeArm  44.7185 26.1437 4.94324
RightHand  -0.319544 23.234 -1.18456
LeftUpLeg  -8.50583 -9.93134 -0.722344
LeftLeg  56.7207 0.0972493 0.119872
LeftFoot  2.74562 -0.00202614 0.0213472
LeftToes  -15.3636 9.37529e-007 1.1992e-007
127
root  30.3414 31.0638 -51.8358 171.371 -60.1954 -162.355
RightUpLeg  -29.6523 -7.14681 3.03092
RightLeg  39.1787 5.76455 4.07727
RightFoot  -4.05506 -0.0339771 -0.582283
RightToes  -46.8366 -0.275269 -0.359714
Spine  6.74657 0.963628 3.65586
Spine1  13.2315 2.34447 4.42977
HEad  14.4771 57.8162 -13.3881
LeftShoulder1  0 -2.42657e-020 -4.95415e-022
LeftArm  -27.5653 9.99672 -82.8043
LeftForeArm  53.9372 -17.9938 -3.24512
LeftHand  -0.295779 -8.88123 3.44002
RightShoulder  0 2.42657e-020 1.07489e-018
RightArm  -31.3952 -1.46281 63.803
RightForeArm  45.4855 25.4319 4.78658
RightHand  -0.208199 23.558 -0.628549
LeftUpLeg  -11.6002 -9.79447 1.29032
LeftLeg  69.5772 0.302823 0.661239
LeftFoot  6.30505 -0.00740456 0.163846
LeftToes  -20.1166 9.37529e-007 1.1992e-007
